<svg xmlns="http://www.w3.org/2000/svg" viewBox="0 0 640 200" role="img" aria-labelledby="accessping-logo-title"><title id="accessping-logo-title">AccessPing</title><g transform="translate(4,8)"><path d="M62 172 C72 118, 112 58, 142 40 C152 34, 160 42, 156 54 C152 68, 138 78, 122 86 C110 92, 100 100, 96 112" fill="none" stroke="#261f1a" stroke-width="34" stroke-linecap="round"/><path d="M98 148 C128 136, 160 146, 180 170 C182 174, 180 179, 175 179 C152 168, 124 164, 102 170 C96 172, 93 164, 94 156 C94 152, 96 149, 98 148 Z" fill="#261f1a"/><circle cx="174" cy="80" r="14" fill="#c84838"/><path d="M197 61 A30 30 0 0 1 197 99" fill="none" stroke="#c84838" stroke-width="12" stroke-linecap="round"/><path d="M211 49 A48 48 0 0 1 211 111" fill="none" stroke="#c84838" stroke-width="13" stroke-linecap="round"/></g><text x="248" y="126" font-family="Manrope, Inter, ui-sans-serif, sans-serif" font-weight="800" font-size="64" letter-spacing="-2"><tspan fill="#261f1a">Access</tspan><tspan fill="#c84838">Ping</tspan></text></svg>
